#!OML:ASF F:\VICON\USERDATA\INSTALL\Justin_Nancy\Justin_Nancy.ASF
:FULLY-SPECIFIED
:DEGREES
267
root 0.0167991 17.1432 -0.986696 3.24505 -6.52547 -2.40535
lowerback 6.17844 2.296 2.80669
upperback 0.74006 3.29849 1.92516
thorax -2.6528 1.62002 0.136757
lowerneck -16.2663 -4.78315 -8.99996
upperneck 20.2535 -6.00924 7.37956
head 9.59016 -2.69082 3.26548
rclavicle -1.58034e-014 -8.74653e-015
rhumerus -24.1937 -7.32019 -80.0451
rradius 36.7013
rwrist 3.66409
rhand -15.2761 12.3153
rfingers 7.12502
rthumb 10.8985 -17.3818
lclavicle -1.58034e-014 -8.74653e-015
lhumerus -37.0141 8.52599 82.6779
lradius 24.1197
lwrist -12.8707
lhand -10.0706 25.3415
lfingers 7.12502
lthumb 15.9157 54.7075
rfemur 15.8114 5.43575 27.0536
rtibia 19.3709
rfoot -10.668 -2.92258
rtoes -15.4577
lfemur -33.0054 -1.58144 -16.5839
ltibia 24.0319
lfoot -1.07282 3.9087
ltoes -6.62454
268
root 0.0351233 17.1543 -0.760474 2.98144 -6.49671 -2.17598
lowerback 6.23263 2.33778 2.70686
upperback 0.688396 3.3488 1.82963
thorax -2.73553 1.64443 0.0862316
lowerneck -16.2622 -4.79844 -9.19392
upperneck 20.6653 -6.05543 7.59413
head 9.75209 -2.70408 3.37309
rclavicle 1.12313e-014 -7.95139e-015
rhumerus -24.5169 -7.81971 -79.8722
rradius 36.6106
rwrist 3.51324
rhand -15.1048 12.8563
rfingers 7.12502
rthumb 11.0637 -16.8321
lclavicle 1.12313e-014 -7.95139e-015
lhumerus -37.078 9.01061 82.3554
lradius 23.6138
lwrist -13.5264
lhand -9.78801 25.8868
lfingers 7.12502
lthumb 16.1878 55.2309
rfemur 15.5397 5.51725 26.7384
rtibia 21.634
rfoot -9.19816 -2.40917
rtoes -15.9635
lfemur -32.7342 -1.79096 -16.9384
ltibia 25.024
lfoot 0.0572532 3.92277
ltoes -8.39626
269
root 0.0517652 17.1614 -0.527697 2.73549 -6.2432 -1.77747
lowerback 6.13099 2.26796 2.33771
upperback 0.644259 3.22735 1.77664
thorax -2.74344 1.5879 0.250421
lowerneck -16.0661 -4.76876 -9.47178
upperneck 20.8278 -6.03578 7.87416
head 9.78941 -2.69096 3.52704
rclavicle 6.85807e-015 1.35174e-014
rhumerus -24.8286 -8.20978 -79.6871
rradius 36.4389
rwrist 3.46744
rhand -15.372 13.1908
rfingers 7.12502
rthumb 10.806 -16.5112
lclavicle 6.85807e-015 1.35174e-014
lhumerus -37.0847 9.99612 81.9223
lradius 22.8982
lwrist -14.1538
lhand -9.60705 26.4178
lfingers 7.12502
lthumb 16.362 55.7477
rfemur 14.9191 5.36028 26.2262
rtibia 24.4307
rfoot -7.59148 -1.76522
rtoes -16.6919
lfemur -32.3491 -1.88824 -17.5987
ltibia 25.8477
lfoot 0.571732 3.41719
ltoes -6.8247
270
root 0.0622355 17.1706 -0.303048 2.53769 -6.07349 -1.07644
lowerback 6.09566 2.28673 1.54553
upperback 0.542065 3.19762 1.6447
thorax -2.86504 1.58077 0.557396
lowerneck -16.0165 -4.87707 -9.41179
upperneck 21.0923 -6.17774 7.68155
head 9.87942 -2.77418 3.4326
rclavicle -3.8266e-015 9.54166e-015
rhumerus -25.4497 -8.84114 -79.4171
rradius 36.4999
rwrist 3.41863
rhand -15.8898 13.7559
rfingers 7.12502
rthumb 10.3065 -15.9716
lclavicle -3.8266e-015 9.54166e-015
lhumerus -37.2479 10.7345 81.4999
lradius 22.3971
lwrist -14.8338
lhand -9.57452 26.2711
lfingers 7.12502
lthumb 16.3933 55.5983
rfemur 13.8985 5.22152 25.3491
rtibia 27.5475
rfoot -5.58975 -1.00686
rtoes -14.7013
lfemur -31.9615 -1.74424 -18.6242
ltibia 26.5339
lfoot 0.921454 2.32756
ltoes -3.78346
271
root 0.0689574 17.1757 -0.0870717 2.19722 -6.06135 -0.505503
lowerback 6.30115 2.38936 0.921558
upperback 0.49604 3.29272 1.494
thorax -3.05366 1.63408 0.731804
lowerneck -16.0555 -5.02186 -9.30753
upperneck 21.3926 -6.37359 7.47786
head 10.0021 -2.87778 3.3179
rclavicle -3.06128e-014 3.18055e-015
rhumerus -25.9609 -9.44728 -79.1884
rradius 36.4536
rwrist 3.27242
rhand -16.2678 13.8433
rfingers 7.12502
rthumb 9.94181 -15.9019
lclavicle -3.06128e-014 3.18055e-015
lhumerus -37.3259 11.3085 81.0596
lradius 21.9506
lwrist -15.5948
lhand -9.43872 26.4716
lfingers 7.12502
lthumb 16.5241 55.788
rfemur 12.838 5.18698 24.6016
rtibia 30.7665
rfoot -2.84752 -0.265594
rtoes -12.733
lfemur -31.3701 -1.44208 -19.4728
ltibia 27.1873
lfoot 1.32727 1.66944
ltoes -2.01007
